<?xml version="1.0" encoding="utf-8"?>
<svg version="1.1" xmlns="http://www.w3.org/2000/svg" width="512" height="512" xmlns:bx="https://boxy-svg.com" viewBox="0 0 512 512"><defs><bx:export><bx:file format="svg"/></bx:export></defs><path d="M 41.269 107.987 C 51.829 107.987 30.062 107.987 40.942 107.987 C 40.942 142.307 51.947 84.459 51.947 119.819 C 63.167 119.819 54.44 104 66 104 C 66.99 102.02 66.99 102.02 68 100 C 72.798 95.268 77.651 95.481 84.188 95.453 C 85.446 95.469 86.704 95.484 88 95.5 C 89.258 95.485 90.516 95.469 91.813 95.453 C 103.439 95.502 103.439 95.502 108 100 C 108.66 101.32 109.32 102.64 110 104 C 135.08 103.67 160.16 103.34 186 103 C 183.03 100.03 180.06 97.06 177 94 C 169.118 82.468 167.479 72.275 167.554 58.524 C 167.562 56.136 167.534 53.751 167.502 51.363 C 167.428 35.592 171.435 23.974 182.313 12.25 C 192.871 2.257 204.418 -0.514 218.53 -0.42 C 232.653 -0.009 243.729 5.837 253.406 16.063 C 262.807 27.491 264.524 39.107 264.446 53.476 C 264.438 55.864 264.466 58.249 264.498 60.637 C 264.562 74.291 262.049 85.316 253 96 C 250.69 98.31 248.38 100.62 246 103 C 271.08 103.33 296.16 103.66 322 104 C 322.66 102.68 323.32 101.36 324 100 C 328.798 95.268 333.651 95.481 340.188 95.453 C 341.446 95.469 342.704 95.484 344 95.5 C 345.258 95.485 346.516 95.469 347.813 95.453 C 359.439 95.502 359.439 95.502 364 100 C 364.66 101.32 365.32 102.64 366 104 C 377.22 104 378.811 114.317 390.371 114.317 C 390.371 79.997 358.043 147.474 358.043 112.114 C 368.603 112.114 379.163 112.114 390.043 112.114 C 382.477 112.074 383.165 110.658 384.541 112.346 C 392.461 112.346 376.308 107.531 384.468 107.531 C 384.468 118.091 393.409 108.017 394.785 110.643 C 368.385 110.643 408.015 111.331 380.815 111.331 C 380.815 100.771 381.503 119.099 381.503 108.219 C 389.423 108.219 382.899 110.971 391.059 110.971 C 388.996 107.967 390.371 106.338 400 120 C 388.78 120 377.56 120 366 120 C 365.34 121.32 364.68 122.64 364 124 C 360.294 126.901 358.782 128 354 128 C 353.746 128.792 353.746 128.792 353.488 129.599 C 351.51 135.661 349.267 141.588 346.91 147.512 C 346.524 148.484 346.139 149.455 345.741 150.457 C 344.93 152.497 344.117 154.536 343.303 156.575 C 342.063 159.686 340.833 162.801 339.604 165.916 C 338.811 167.906 338.017 169.897 337.223 171.887 C 336.859 172.812 336.495 173.737 336.121 174.69 C 330.793 187.941 330.793 187.941 324.159 191.31 C 316.276 193.829 308.802 192.084 301.627 188.493 C 300.683 187.99 299.738 187.487 298.766 186.969 C 297.762 186.458 296.758 185.948 295.723 185.422 C 292.553 183.804 289.402 182.153 286.25 180.5 C 284.09 179.39 281.928 178.282 279.766 177.176 C 274.497 174.476 269.243 171.749 264 169 C 263.485 179.31 263.214 189.615 263.125 199.938 C 263.115 201.11 263.115 201.11 263.104 202.305 C 262.878 240.535 273.234 274.533 286.051 310.225 C 289.557 320.478 289.714 333.642 285.301 343.637 C 278.695 355.638 267.164 364.487 256.922 373.328 C 254.589 375.358 252.295 377.428 250 379.5 C 246.391 382.757 242.754 385.975 239.086 389.164 C 235.72 392.127 232.413 395.156 229.102 398.18 C 227 400 227 400 225 401 C 224.986 402.207 224.972 403.413 224.957 404.656 C 224.57 420.553 224.57 420.553 220.559 425.52 C 220.044 426.008 219.53 426.497 219 427 C 218.455 427.519 217.909 428.039 217.348 428.574 C 211.526 433.067 205.056 432.821 198 432 C 191.231 429.908 187 424.084 183.677 418.037 C 182.924 416.58 182.181 415.119 181.448 413.653 C 180.829 412.447 180.829 412.447 180.199 411.216 C 178.852 408.58 177.521 405.937 176.191 403.293 C 175.256 401.444 174.321 399.594 173.385 397.745 C 171.432 393.878 169.488 390.006 167.548 386.133 C 165.067 381.181 162.555 376.247 160.035 371.315 C 158.095 367.505 156.176 363.684 154.263 359.859 C 153.346 358.036 152.422 356.216 151.489 354.4 C 150.185 351.856 148.913 349.298 147.647 346.735 C 147.066 345.627 147.066 345.627 146.474 344.497 C 142.468 336.207 144.602 328.387 147.117 319.913 C 147.559 318.364 148.001 316.814 148.442 315.264 C 148.675 314.453 148.909 313.643 149.149 312.807 C 159.948 275.047 169.224 238.484 168.875 199 C 168.868 198.226 168.861 197.451 168.854 196.654 C 168.756 187.427 168.482 178.215 168 169 C 167.176 169.432 167.176 169.432 166.334 169.873 C 160.573 172.887 154.795 175.866 149.006 178.827 C 146.852 179.933 144.703 181.049 142.559 182.173 C 139.462 183.795 136.35 185.384 133.234 186.969 C 132.29 187.472 131.346 187.975 130.373 188.493 C 123.154 192.106 115.829 193.7 107.876 191.381 C 99.413 187.271 96.335 176.48 93.137 168.352 C 92.7 167.258 92.263 166.164 91.813 165.037 C 90.898 162.741 89.986 160.443 89.078 158.144 C 87.682 154.612 86.275 151.085 84.865 147.559 C 83.976 145.323 83.087 143.088 82.199 140.852 C 81.777 139.793 81.356 138.735 80.921 137.645 C 80.537 136.67 80.153 135.695 79.757 134.69 C 79.416 133.83 79.076 132.971 78.726 132.085 C 78 130 78 130 78 128 C 77.134 127.938 76.268 127.876 75.375 127.813 C 70.991 126.757 69.208 125.132 66 122 C 66 121.34 66 120.68 66 120 C 54.78 120 59.38 109.683 47.82 109.683 C 46.444 113.375 40.941 111.564 45.756 111.658 C 53.676 111.658 38.898 112.346 47.058 112.346 C 47.058 122.906 50.497 101.827 50.497 112.707 C 24.097 112.707 74.045 114.77 46.845 114.77 C 46.845 104.21 47.533 121.851 47.533 110.971 C 55.453 110.971 36.548 109.595 44.708 109.595 C 36.454 111.699 43.332 115.178 41.269 107.987 Z M 110 120 C 108.823 124.707 109.472 125.922 111.309 130.297 C 111.808 131.502 112.308 132.707 112.822 133.949 C 113.36 135.216 113.899 136.483 114.438 137.75 C 114.973 139.032 115.508 140.315 116.041 141.598 C 117.351 144.736 118.671 147.87 120 151 C 123.853 148.121 127.701 145.239 131.5 142.289 C 145.77 131.339 160.247 124.393 178 121 C 178 120.67 178 120.34 178 120 C 155.56 120 133.12 120 110 120 Z M 254 120 C 254 120.33 254 120.66 254 121 C 255.454 121.311 255.454 121.311 256.938 121.629 C 278.61 126.505 294.222 136.824 311 151 C 314.783 146.343 316.585 141.04 318.75 135.5 C 319.174 134.455 319.598 133.409 320.035 132.332 C 320.431 131.325 320.827 130.319 321.234 129.281 C 321.779 127.905 321.779 127.905 322.335 126.502 C 323.281 123.754 323.281 123.754 322 120 C 299.56 120 277.12 120 254 120 Z M 216 282 C 211.378 292.956 207.086 304.018 202.877 315.138 C 202.037 317.352 201.191 319.564 200.34 321.774 C 199.103 324.99 197.882 328.211 196.664 331.434 C 196.089 332.913 196.089 332.913 195.503 334.423 C 195.159 335.345 194.814 336.267 194.459 337.217 C 194.153 338.022 193.846 338.827 193.529 339.657 C 192.561 343.941 193.935 347.296 196.066 350.988 C 196.469 351.694 196.872 352.4 197.287 353.127 C 197.708 353.848 198.129 354.569 198.563 355.313 C 199.2 356.423 199.2 356.423 199.85 357.557 C 200.894 359.375 201.946 361.188 203 363 C 205.962 361.662 208.085 360.181 210.407 357.915 C 211.373 356.978 211.373 356.978 212.358 356.023 C 213.04 355.349 213.723 354.675 214.426 353.98 C 215.133 353.285 215.84 352.589 216.568 351.873 C 218.058 350.402 219.545 348.928 221.029 347.452 C 223.308 345.192 225.607 342.955 227.908 340.717 C 229.353 339.285 230.796 337.852 232.238 336.418 C 232.931 335.75 233.623 335.082 234.337 334.394 C 234.965 333.76 235.593 333.126 236.24 332.473 C 236.798 331.922 237.357 331.371 237.932 330.803 C 239.236 328.997 239.236 328.997 238.8 326.559 C 238.026 324.083 237.127 321.892 235.959 319.577 C 235.538 318.736 235.118 317.896 234.685 317.03 C 234.231 316.137 233.777 315.244 233.309 314.324 C 232.844 313.399 232.379 312.474 231.9 311.521 C 230.418 308.573 228.928 305.63 227.438 302.688 C 226.43 300.687 225.423 298.686 224.416 296.686 C 221.95 291.787 219.478 286.892 217 282 C 216.67 282 216.34 282 216 282 Z" fill="#F5BA94" transform="translate(40,41)"/><path d="M0 0 C32.34 0 64.68 0 98 0 C101.609375 11.9625 105.21875 23.925 108.9375 36.25 C110.07695068 40.02469727 111.21640137 43.79939453 112.39038086 47.68847656 C113.78234863 52.30419922 113.78234863 52.30419922 114.43409729 54.46624756 C114.88870613 55.97367653 115.34368787 57.48099308 115.79896545 58.98822021 C116.48917181 61.27345785 117.1781879 63.55905129 117.86694336 65.84472656 C118.06944922 66.51422459 118.27195509 67.18372261 118.4805975 67.87350845 C121.91046781 79.27175138 123.24041991 92.45038928 118.30078125 103.63671875 C111.69502963 115.63815939 100.16362985 124.48695201 89.921875 133.328125 C87.58894926 135.35758073 85.29488755 137.427647 83 139.5 C79.39140604 142.75653601 75.75413051 145.97498042 72.0859375 149.1640625 C68.71964012 152.12690851 65.41276778 155.15552169 62.1015625 158.1796875 C60 160 60 160 58 161 C57.98582031 162.2065625 57.97164063 163.413125 57.95703125 164.65625 C57.57043809 180.55302707 57.57043809 180.55302707 53.55859375 185.51953125 C53.04425781 186.00808594 52.52992188 186.49664062 52 187 C51.45472656 187.51949219 50.90945313 188.03898438 50.34765625 188.57421875 C44.52573601 193.06682105 38.05611072 192.820907 31 192 C24.23105448 189.90778047 20.00021755 184.0842612 16.67726135 178.0365448 C15.92410819 176.58046818 15.18132978 175.11899125 14.44750977 173.65307617 C14.03537735 172.84881699 13.62324493 172.0445578 13.19862366 171.21592712 C11.85215278 168.58024055 10.52075329 165.93732896 9.19140625 163.29296875 C8.25610729 161.44354215 7.32063386 159.59420376 6.38499451 157.74494934 C4.43200136 153.87781188 2.48764858 150.00646249 0.5480957 146.13256836 C-1.93281861 141.18142499 -4.44474237 136.24673672 -6.96464443 131.31534863 C-8.90521839 127.50494339 -10.82394922 123.68384539 -12.73686409 119.85949135 C-13.65359944 118.03558168 -14.57818766 116.21559617 -15.51089287 114.39980125 C-16.81482351 111.85577186 -18.08723417 109.29815899 -19.35327148 106.73510742 C-19.93362152 105.62733948 -19.93362152 105.62733948 -20.5256958 104.49719238 C-24.67609869 95.9096377 -22.13921121 87.63345165 -19.86694336 78.78662109 C-19.64875474 77.91314341 -19.43056612 77.03966572 -19.20576572 76.13971901 C-18.50704187 73.34925523 -17.79869475 70.56134375 -17.08984375 67.7734375 C-16.65336924 66.03637559 -16.21753544 64.29915255 -15.78234863 62.56176758 C-14.17514133 56.16422838 -12.55559115 49.76979508 -10.9375 43.375 C-7.328125 29.06125 -3.71875 14.7475 0 0 Z M49 42 C44.37801807 52.95577277 40.0859846 64.01846226 35.87744141 75.13842773 C35.03696649 77.35233368 34.19119056 79.56423387 33.34033203 81.77416992 C32.10277108 84.98950412 30.8816809 88.21066326 29.6640625 91.43359375 C29.08925644 92.91332924 29.08925644 92.91332924 28.50283813 94.42295837 C28.15852753 95.34484451 27.81421692 96.26673065 27.45947266 97.21655273 C27.152565 98.02197006 26.84565735 98.82738739 26.52944946 99.6572113 C25.56132479 103.94111692 26.93510198 107.29602174 29.06640625 110.98828125 C29.46923828 111.69404297 29.87207031 112.39980469 30.28710938 113.12695312 C30.70798828 113.84818359 31.12886719 114.56941406 31.5625 115.3125 C32.19961914 116.42334961 32.19961914 116.42334961 32.84960938 117.55664062 C33.89351653 119.37468118 34.94592192 121.18783748 36 123 C38.96243009 121.66191701 41.084911 120.1809801 43.4074707 117.91479492 C44.37285515 116.97823311 44.37285515 116.97823311 45.35774231 116.02275085 C46.04019516 115.34879776 46.72264801 114.67484467 47.42578125 113.98046875 C48.13276657 113.28488358 48.83975189 112.5892984 49.56816101 111.87263489 C51.05776751 110.40189395 52.54450642 108.92824375 54.02856445 107.4519043 C56.30780162 105.1921582 58.60745585 102.954611 60.90820312 100.71679688 C62.3528753 99.28517773 63.79627929 97.85227744 65.23828125 96.41796875 C65.93085526 95.75008835 66.62342926 95.08220795 67.33699036 94.39408875 C67.96481918 93.76025772 68.59264801 93.1264267 69.23950195 92.47338867 C69.79813431 91.92204758 70.35676666 91.37070648 70.93232727 90.80265808 C72.23648966 88.99685591 72.23648966 88.99685591 71.80010986 86.55935669 C71.02591265 84.08288826 70.1266631 81.89176938 68.95874023 79.5769043 C68.53837997 78.73641037 68.11801971 77.89591644 67.68492126 77.029953 C67.23073318 76.1370607 66.7765451 75.2441684 66.30859375 74.32421875 C65.84389175 73.3990596 65.37918976 72.47390045 64.90040588 71.52070618 C63.41839 68.57343467 61.92807328 65.63045136 60.4375 62.6875 C59.42978803 60.68712619 58.42262012 58.6864782 57.41601562 56.68554688 C54.95030922 51.78716836 52.47777863 46.89228201 50 42 C49.67 42 49.34 42 49 42 Z " fill="#2B6BB1" transform="translate(207,281)"/><path d="M0 0 C0.20302734 1.051875 0.20302734 1.051875 0.41015625 2.125 C2.24341851 10.2045271 5.14896738 15.44727279 11.8828125 20.37890625 C17.70773093 23.76301878 23.63063009 23.89628101 30.1328125 22.5625 C36.21262549 20.65510769 41.72253306 16.6203871 45.1328125 11.19921875 C46.78751095 7.57655369 47.39235122 3.90318542 48 0 C67.64858208 -1.10523274 87.26563794 5.06810877 103 17 C102.34 17.33 101.68 17.66 101 18 C100.35416962 20.18541655 99.81284239 22.40175916 99.3125 24.625 C96.75213669 35.57452966 93.3453728 46.26998472 90 57 C84 55 84 55 72 49 C72 72.43 72 95.86 72 120 C40.32 120 8.64 120 -24 120 C-24 96.57 -24 73.14 -24 49 C-31.92 52.96 -31.92 52.96 -40 57 C-40.99 56.67 -41.98 56.34 -43 56 C-43.91967773 53.67431641 -43.91967773 53.67431641 -44.68359375 50.6015625 C-44.97169922 49.48136719 -45.25980469 48.36117187 -45.55664062 47.20703125 C-45.99266602 45.43392578 -45.99266602 45.43392578 -46.4375 43.625 C-49.44321477 31.05771951 -49.44321477 31.05771951 -54 19 C-54.66 18.67 -55.32 18.34 -56 18 C-40.05676417 5.39104666 -20.26830006 -1.14009188 0 0 Z " fill="#6DB468" transform="translate(232,161)"/><path d="M0 0 C1.27617187 -0.02900391 2.55234375 -0.05800781 3.8671875 -0.08789062 C14.40391071 -0.15938196 14.40391071 -0.15938196 18.015625 2.08203125 C20.25 4.3125 20.25 4.3125 22.25 8.3125 C33.47 8.3125 44.69 8.3125 56.25 8.3125 C56.25 13.5925 56.25 18.8725 56.25 24.3125 C45.03 24.3125 33.81 24.3125 22.25 24.3125 C21.59 25.6325 20.93 26.9525 20.25 28.3125 C16.54357712 31.21317878 15.03239442 32.3125 10.25 32.3125 C10.08088608 32.84023514 9.91177216 33.36797028 9.73753357 33.91169739 C7.76012734 39.97377264 5.5171933 45.90064793 3.16015625 51.82421875 C2.77435898 52.7960762 2.38856171 53.76793365 1.99107361 54.76924133 C1.17978443 56.80936832 0.36706485 58.84892702 -0.44702148 60.88793945 C-1.68701974 63.99879516 -2.91683713 67.11355645 -4.14648438 70.22851562 C-4.93948054 72.21899856 -5.73307975 74.20924138 -6.52734375 76.19921875 C-6.89101547 77.12433762 -7.25468719 78.04945648 -7.62937927 79.00260925 C-12.97630519 92.30065259 -12.97630519 92.30065259 -19.60449219 95.61474609 C-27.95328681 98.32990939 -35.36638542 96.1307609 -42.89953613 92.31045532 C-44.77517137 91.32683416 -46.6374397 90.32062164 -48.5 89.3125 C-49.79310041 88.63577962 -51.08736713 87.96128302 -52.3828125 87.2890625 C-55.51904785 85.65558309 -58.63850799 83.99273122 -61.75 82.3125 C-60.28685452 73.98214725 -58.04100316 65.92977028 -55.6875 57.8125 C-55.31934084 56.52613339 -54.95150027 55.23967554 -54.58398438 53.953125 C-51.89074248 44.59398496 -51.89074248 44.59398496 -50.75 42.3125 C-47.65106073 42.90913486 -45.74707826 43.8426314 -43.296875 45.81640625 C-42.678125 46.30947266 -42.059375 46.80253906 -41.421875 47.31054688 C-40.78765625 47.82681641 -40.1534375 48.34308594 -39.5 48.875 C-38.8503125 49.39513672 -38.200625 49.91527344 -37.53125 50.45117188 C-35.93272331 51.732344 -34.34071374 53.02164005 -32.75 54.3125 C-29.88234906 48.71102184 -27.24786084 43.07833944 -24.875 37.25 C-24.54242188 36.48623047 -24.20984375 35.72246094 -23.8671875 34.93554688 C-21.72540306 29.63100025 -21.69143056 26.83290809 -23.75 21.3125 C-24.42284461 15.36175745 -24.24478027 10.3739059 -20.75 5.3125 C-14.11837067 -0.67214111 -8.65252494 0.06476441 0 0 Z " fill="#E4A987" transform="translate(383.75,136.6875)"/><path d="M0 0 C1.258125 -0.01546875 2.51625 -0.0309375 3.8125 -0.046875 C15.26183681 0.00163914 15.26183681 0.00163914 20 4.5 C23.80357362 9.74630844 24.32044651 14.09106981 24 20.5 C23.56558594 21.62921875 23.13117188 22.7584375 22.68359375 23.921875 C21.04702713 30.22342123 24.37981291 35.812537 26.875 41.5 C27.60396484 43.23443359 27.60396484 43.23443359 28.34765625 45.00390625 C29.54520085 47.84513952 30.76284199 50.67584495 32 53.5 C35.83038115 53.5 39.20302006 49.51342569 42.125 47.14257812 C45.06500392 44.81004077 47.32199555 43.22892448 51 42.5 C53.9294592 50.95924652 56.45171062 59.47435715 58.75 68.125 C59.06582031 69.29417969 59.38164062 70.46335937 59.70703125 71.66796875 C62 80.23434118 62 80.23434118 62 82.5 C58.24828835 84.52595508 54.4807535 86.51764606 50.69628906 88.48144531 C49.41559796 89.15167151 48.13936962 89.83050726 46.86816406 90.51855469 C38.17351195 95.21503607 29.92110096 98.85351004 19.88989258 95.87304688 C11.41253577 91.82294294 8.32541533 80.95460781 5.13671875 72.8515625 C4.69987259 71.75782318 4.26302643 70.66408386 3.8129425 69.53720093 C2.89758005 67.24094327 1.98595043 64.9431944 1.07788086 62.64404297 C-0.31762405 59.11203108 -1.72522234 55.58502368 -3.13476562 52.05859375 C-4.02414473 49.82319792 -4.91284114 47.58753032 -5.80078125 45.3515625 C-6.22257156 44.29329254 -6.64436188 43.23502258 -7.07893372 42.14468384 C-7.4632103 41.16961884 -7.84748688 40.19455383 -8.2434082 39.18994141 C-8.58362503 38.33026764 -8.92384186 37.47059387 -9.27436829 36.58486938 C-10 34.5 -10 34.5 -10 32.5 C-10.86625 32.438125 -11.7325 32.37625 -12.625 32.3125 C-17.0091643 31.25705304 -18.79178588 29.63182806 -22 26.5 C-22 25.84 -22 25.18 -22 24.5 C-33.22 24.5 -44.44 24.5 -56 24.5 C-56 19.22 -56 13.94 -56 8.5 C-44.78 8.5 -33.56 8.5 -22 8.5 C-21.34 7.18 -20.68 5.86 -20 4.5 C-14.37832378 -1.04359739 -7.48542642 -0.09203393 0 0 Z " fill="#E4A887" transform="translate(128,136.5)"/><path d="M0 0 C0.00546844 1.58947449 0.00546844 1.58947449 0.01104736 3.21105957 C0.04804928 13.2157281 0.10587881 23.22009032 0.18390274 33.22452545 C0.22334818 38.36746972 0.25555111 43.51024352 0.27099609 48.65332031 C0.2861819 53.62021597 0.32066183 58.58664287 0.36830902 63.55332947 C0.38310294 65.44461484 0.39103987 67.33596714 0.39188385 69.22731018 C0.39426127 71.88446551 0.42140238 74.54033352 0.45410156 77.19726562 C0.4490712 77.97266693 0.44404083 78.74806824 0.43885803 79.54696655 C0.56320735 86.1127728 2.6235241 91.28807721 6.96484375 96.2421875 C7.61582031 96.78101563 8.26679688 97.31984375 8.9375 97.875 C9.58589844 98.42929688 10.23429687 98.98359375 10.90234375 99.5546875 C15.24335271 102.54569926 19.03541899 103.2550153 24.2590332 103.31884766 C26.12039665 103.34865219 26.12039665 103.34865219 28.0193634 103.37905884 C29.36316754 103.39093329 30.70697357 103.40259626 32.05078125 103.4140625 C33.43370201 103.43278498 34.81661147 103.4523592 36.19950867 103.4727478 C39.82766038 103.52396118 43.45584909 103.56364431 47.08416748 103.60089111 C50.79122996 103.64099875 54.49813999 103.69206015 58.20507812 103.7421875 C65.46995517 103.83881893 72.73489184 103.92225099 80 104 C80 109.28 80 114.56 80 120 C48.32 120 16.64 120 -16 120 C-16 96.57 -16 73.14 -16 49 C-23.92 52.96 -23.92 52.96 -32 57 C-32.99 56.67 -33.98 56.34 -35 56 C-35.91967773 53.67431641 -35.91967773 53.67431641 -36.68359375 50.6015625 C-36.97169922 49.48136719 -37.25980469 48.36117187 -37.55664062 47.20703125 C-37.99266602 45.43392578 -37.99266602 45.43392578 -38.4375 43.625 C-41.44321477 31.05771951 -41.44321477 31.05771951 -46 19 C-46.66 18.67 -47.32 18.34 -48 18 C-34.85912383 7.60733592 -16.95617579 -0.23976324 0 0 Z " fill="#52A04F" transform="translate(224,161)"/><path d="M0 0 C69.96 0 139.92 0 212 0 C211.67 0.99 211.34 1.98 211 3 C210.90691456 4.66458673 210.87003815 6.33281997 210.875 8 C210.87242187 8.86625 210.86984375 9.7325 210.8671875 10.625 C210.90405795 13.15011695 210.90405795 13.15011695 212 16 C184.94 16 157.88 16 130 16 C129.67 18.97 129.34 21.94 129 25 C125.78905285 31.4218943 120.21815076 36.62930616 113.625 39.4375 C106.61899078 40.52463936 100.29880387 41.08910343 93.953125 37.46484375 C88.4342732 33.3257049 83.26498134 27.95739736 82 21 C82 19.35 82 17.7 82 16 C54.94 16 27.88 16 0 16 C0.33 14.68 0.66 13.36 1 12 C1.15688988 7.68552829 0.85524908 4.27624542 0 0 Z " fill="#969695" transform="translate(150,145)"/><path d="M0 0 C10.42359653 7.8719001 18.31419899 17.50249437 20.6875 30.6875 C20.89420083 34.04064682 20.88011397 37.33459019 20.6875 40.6875 C10.93575489 41.53684554 3.84008986 40.28098093 -4.3125 34.6875 C-6.77283491 32.45796574 -8.40322828 30.44533693 -10.3125 27.6875 C-10.3125 27.0275 -10.3125 26.3675 -10.3125 25.6875 C-10.9725 25.6875 -11.6325 25.6875 -12.3125 25.6875 C-12.5909375 26.739375 -12.5909375 26.739375 -12.875 27.8125 C-16.13307158 34.32864316 -21.98244781 37.33967015 -28.56951904 39.87365723 C-33.03582593 41.19881101 -37.28742361 41.18299337 -41.9140625 41.078125 C-43.35777725 41.06963531 -43.35777725 41.06963531 -44.83065796 41.06097412 C-47.86680534 41.03880863 -50.90171699 40.98865133 -53.9375 40.9375 C-56.01170155 40.91740931 -58.08592184 40.89916308 -60.16015625 40.8828125 C-65.21140447 40.83900915 -70.26174367 40.77012216 -75.3125 40.6875 C-75.32955161 39.08857891 -75.34171089 37.48960514 -75.35180664 35.890625 C-75.35910294 35.00020508 -75.36639923 34.10978516 -75.37391663 33.19238281 C-75.1030676 22.14578017 -68.23308577 12.7335382 -61 4.9375 C-44.70456176 -10.48496833 -18.58433045 -12.3339951 0 0 Z " fill="#5A5B5D" transform="translate(283.3125,48.3125)"/><path d="M0 0 C5.61 0 11.22 0 17 0 C15.03533222 7.99150965 13.07017899 15.98289951 11.10426235 23.97410202 C10.01330676 28.40878853 8.9227676 32.84357711 7.83263206 37.27846527 C7.30244149 39.43478493 6.77180878 41.59099544 6.24111938 43.74719238 C5.53570749 46.6135399 4.83231745 49.4803735 4.13021851 52.34753418 C2.42400171 59.30331564 0.6856509 66.24823029 -1.12451172 73.17773438 C-1.45967164 74.47252136 -1.7945524 75.76738064 -2.12913513 77.06231689 C-2.75217184 79.46397839 -3.38463489 81.86322189 -4.0282135 84.25946045 C-4.30370529 85.32658264 -4.57919708 86.39370483 -4.86303711 87.49316406 C-5.1078331 88.41679749 -5.35262909 89.34043091 -5.60484314 90.29205322 C-6.36950445 95.53215491 -4.94703249 99.60779934 -2.59155273 104.23925781 C-1.84088783 105.73045135 -1.84088783 105.73045135 -1.07505798 107.25177002 C-0.53337479 108.30821716 0.00830841 109.36466431 0.56640625 110.453125 C1.11989243 111.54969421 1.6733786 112.64626343 2.24363708 113.77606201 C4.00902646 117.27126561 5.78504026 120.76092127 7.5625 124.25 C9.34210926 127.75404799 11.11939236 131.25922702 12.89207458 134.76678467 C13.99501387 136.9480773 15.10222193 139.12721753 16.21400452 141.30401611 C16.71129562 142.2855365 17.20858673 143.26705688 17.72094727 144.27832031 C18.16205338 145.14402649 18.60315948 146.00973267 19.05763245 146.90167236 C20 149 20 149 20 151 C18.421924 151.84324672 16.8372958 152.67423918 15.25 153.5 C14.36828125 153.9640625 13.4865625 154.428125 12.578125 154.90625 C10 156 10 156 6 156 C2.17294847 148.62488743 -1.62742912 141.2368811 -5.39520359 133.83133888 C-7.1458864 130.39239502 -8.9051379 126.95845615 -10.68530273 123.53466797 C-12.40544661 120.22550625 -14.10133076 116.90490437 -15.78159904 113.57532883 C-16.42424499 112.31207834 -17.07527713 111.05305543 -17.73504829 109.79866409 C-18.66311002 108.03061647 -19.55785301 106.24520392 -20.45141602 104.45947266 C-21.22751976 102.94723618 -21.22751976 102.94723618 -22.01930237 101.40444946 C-24.16572276 93.9532438 -21.75120863 86.12258123 -19.86694336 78.78662109 C-19.65221878 77.92684662 -19.4374942 77.06707214 -19.21626282 76.1812439 C-18.51414593 73.37691251 -17.80210106 70.57520881 -17.08984375 67.7734375 C-16.59740879 65.8149036 -16.10560239 63.85621156 -15.61439514 61.89736938 C-14.3268443 56.76995281 -13.03082483 51.64471441 -11.73297119 46.51989746 C-10.40730887 41.27888796 -9.0897482 36.03584309 -7.77148438 30.79296875 C-5.18886991 20.52664478 -2.59654938 10.26280843 0 0 Z " fill="#1E559A" transform="translate(207,281)"/><path d="M0 0 C1.27617187 -0.02900391 2.55234375 -0.05800781 3.8671875 -0.08789062 C14.40391071 -0.15938196 14.40391071 -0.15938196 18.015625 2.08203125 C20.25 4.3125 20.25 4.3125 22.25 8.3125 C33.47 8.3125 44.69 8.3125 56.25 8.3125 C56.25 13.5925 56.25 18.8725 56.25 24.3125 C45.03 24.3125 33.81 24.3125 22.25 24.3125 C21.59 25.6325 20.93 26.9525 20.25 28.3125 C14.73576912 33.61249555 8.5528779 32.87549291 1.25 32.75 C0.08726562 32.75708984 -1.07546875 32.76417969 -2.2734375 32.77148438 C-8.14312875 32.72783106 -12.71698554 32.6819174 -17.75 29.3125 C-18.4925 28.85875 -19.235 28.405 -20 27.9375 C-22.86570455 25.27648864 -23.60414027 22.8427477 -23.97265625 18.9765625 C-24.15578887 13.67367878 -23.85259357 9.80591138 -20.75 5.3125 C-14.11837067 -0.67214111 -8.65252494 0.06476441 0 0 Z " fill="#F5BA95" transform="translate(383.75,136.6875)"/><path d="M0 0 C1.258125 -0.01546875 2.51625 -0.0309375 3.8125 -0.046875 C15.26183681 0.00163914 15.26183681 0.00163914 20 4.5 C23.79730127 9.73765692 24.33125017 14.09582999 24 20.5 C23.2252767 24.80401834 22.00761324 26.77590819 18.5625 29.3125 C12.47752184 33.37353294 6.27218005 32.75483847 -0.8125 32.8125 C-2.5769043 32.85600586 -2.5769043 32.85600586 -4.37695312 32.90039062 C-15.37750396 32.9812313 -15.37750396 32.9812313 -20 28.5 C-20.66 27.18 -21.32 25.86 -22 24.5 C-33.22 24.5 -44.44 24.5 -56 24.5 C-56 19.22 -56 13.94 -56 8.5 C-44.78 8.5 -33.56 8.5 -22 8.5 C-21.34 7.18 -20.68 5.86 -20 4.5 C-14.37832378 -1.04359739 -7.48542642 -0.09203393 0 0 Z " fill="#F5BA95" transform="translate(128,136.5)"/><path d="M0 0 C1.44487984 2.49597691 2.88092372 4.99640613 4.3125 7.5 C4.71662109 8.19609375 5.12074219 8.8921875 5.53710938 9.609375 C9.8404911 17.16653314 12.57956133 23.71245058 12.5 32.5 C12.49355469 33.24540039 12.48710937 33.99080078 12.48046875 34.75878906 C12.28553454 40.60425037 11.37078028 44.84347366 7 49 C6.18015625 49.78117187 6.18015625 49.78117187 5.34375 50.578125 C-0.47724874 55.0672003 -6.94675486 54.82057362 -14 54 C-20.46779894 52.00086215 -24.31805631 46.91222366 -27.61010742 41.2121582 C-29.25063054 38.06046235 -30.8251759 34.88472972 -32.375 31.6875 C-32.92027344 30.59115234 -33.46554688 29.49480469 -34.02734375 28.36523438 C-38 20.29546523 -38 20.29546523 -38 18 C-37.37134033 17.70343506 -36.74268066 17.40687012 -36.0949707 17.10131836 C-19.96814098 9.50503762 -19.96814098 9.50503762 -4.23046875 1.14453125 C-2 0 -2 0 0 0 Z " fill="#B3B3B4" transform="translate(252,419)"/><path d="M0 0 C15.84 0 31.68 0 48 0 C46.85759715 10.28162561 44.67685758 14.17048069 37.06640625 20.51953125 C31.50244246 24.50581155 24.61361574 24.801966 18 24 C10.88352873 22.06150965 6.22898687 16.80726905 2 11 C0.06496581 6.80742593 0 4.744186 0 0 Z " fill="#E7A888" transform="translate(232,161)"/><path d="M0 0 C2.59454401 2.59454401 3.73521876 4.11066861 5.3046875 7.2734375 C5.72363281 8.0984375 6.14257812 8.9234375 6.57421875 9.7734375 C7.43672017 11.49844033 8.29613218 13.22499156 9.15234375 14.953125 C12.6870062 21.89273752 16.4069617 27.22562062 24 30 C28.7559406 30.46296767 33.36293978 30.1966607 38 29 C35.43027624 34.95093923 32.02434214 38.55031114 26 41 C19.39705402 41.65688222 12.49246538 42.15283968 7 38 C1.40779451 32.22586986 -1.88572825 25.8857384 -5.375 18.6875 C-5.92027344 17.59115234 -6.46554688 16.49480469 -7.02734375 15.36523438 C-11 7.29546523 -11 7.29546523 -11 5 C-7.37 3.35 -3.74 1.7 0 0 Z " fill="#919495" transform="translate(225,432)"/><path d="M0 0 C11.22 0 22.44 0 34 0 C34 5.28 34 10.56 34 16 C22.78 16 11.56 16 0 16 C0.33 14.68 0.66 13.36 1 12 C1.15688988 7.68552829 0.85524908 4.27624542 0 0 Z " fill="#969695" transform="translate(406,145)"/><path d="M0 0 C11.22 0 22.44 0 34 0 C33.67 0.99 33.34 1.98 33 3 C32.90691456 4.66458673 32.87003815 6.33281997 32.875 8 C32.87242188 8.86625 32.86984375 9.7325 32.8671875 10.625 C32.90405795 13.15011695 32.90405795 13.15011695 34 16 C22.78 16 11.56 16 0 16 C0 10.72 0 5.44 0 0 Z " fill="#969696" transform="translate(72,145)"/><path d="M0 0 C2.64 0 5.28 0 8 0 C8.01401855 0.9429895 8.01401855 0.9429895 8.02832031 1.9050293 C8.37376099 20.41827881 9.51877572 36.64439868 23.25 50.5 C24.49228707 51.67487614 25.7409852 52.84306748 27 54 C27.66 54.66 28.32 55.32 29 56 C24.96453346 56.58850554 21.4789838 56.86138617 17.8671875 54.7578125 C8.87380456 47.10461996 2.39870471 37.65539137 0 26 C-0.08091092 23.97531289 -0.10758899 21.94815381 -0.09765625 19.921875 C-0.09443359 18.76171875 -0.09121094 17.6015625 -0.08789062 16.40625 C-0.07951172 15.1996875 -0.07113281 13.993125 -0.0625 12.75 C-0.05798828 11.52796875 -0.05347656 10.3059375 -0.04882812 9.046875 C-0.03704815 6.03120054 -0.02059853 3.01562502 0 0 Z " fill="#E8A989" transform="translate(208,89)"/><path d="M0 0 C3.3 0 6.6 0 10 0 C10.515625 1.03125 11.03125 2.0625 11.5625 3.125 C14.87475776 8.91557828 19.62344786 12.97152392 26 15 C28.95536349 15.27728557 28.95536349 15.27728557 32 15.1875 C33.5159375 15.17783203 33.5159375 15.17783203 35.0625 15.16796875 C37.80510945 15.01114401 40.32667311 14.61427548 43 14 C38.83001601 19.51909646 34.91553974 22.54275133 28 24 C21.15457535 24.7101546 15.5998122 24.19985915 10 20 C5.39113666 15.69349117 1.16195427 11.39074851 0 5 C0 3.35 0 1.7 0 0 Z " fill="#D49577" transform="translate(232,161)"/><path d="M0 0 C-1.24145355 3.72436066 -2.18672381 3.88880399 -5.5625 5.6875 C-15.8154405 11.67568462 -23.38610383 20.4841218 -26.59082031 32.15087891 C-27.63404703 36.7336961 -28.37239993 41.34380517 -29 46 C-31.64 46 -34.28 46 -37 46 C-38.08091366 32.42852843 -32.91772254 22.20663782 -24.34375 12.03515625 C-17.8021326 4.98440353 -9.74790327 -0.21662007 0 0 Z " fill="#484546" transform="translate(245,43)"/></svg>